<svg width="24" height="25" viewBox="0 0 24 25" fill="none" xmlns="http://www.w3.org/2000/svg">
<path d="M6.5 16L4.78246 14.855C4.31358 14.5424 4.07914 14.3861 3.90942 14.1796C3.75917 13.9968 3.64643 13.7861 3.57767 13.5597C3.5 13.304 3.5 13.0222 3.5 12.4587V8.88C3.5 7.87191 3.5 7.36786 3.69619 6.98282C3.86876 6.64413 4.14413 6.36876 4.48282 6.19619C4.86786 6 5.37191 6 6.38 6H17.62C18.6281 6 19.1321 6 19.5172 6.19619C19.8559 6.36876 20.1312 6.64413 20.3038 6.98282C20.5 7.36786 20.5 7.87191 20.5 8.88V12.4587C20.5 13.0222 20.5 13.304 20.4223 13.5597C20.3536 13.7861 20.2408 13.9968 20.0906 14.1796C19.9209 14.3861 19.6864 14.5424 19.2175 14.855L17.5 16" stroke="#ECE9E9" stroke-linecap="round"/>
<path d="M20.5 12H17.9415C17.2458 12 16.8979 12 16.636 11.8112C16.3742 11.6225 16.2642 11.2925 16.0442 10.6325L15.9558 10.3675C15.7358 9.70753 15.6258 9.37752 15.364 9.18876C15.1021 9 14.7542 9 14.0585 9H9.94152C9.2458 9 8.89794 9 8.63605 9.18876C8.37416 9.37752 8.26416 9.70753 8.04415 10.3675L7.95585 10.6325C7.73584 11.2925 7.62584 11.6225 7.36395 11.8112C7.10206 12 6.7542 12 6.05848 12H3.5" stroke="#ECE9E9"/>
<path d="M9.5 19L12 21.5M12 21.5L14.5 19M12 21.5L12 14.5" stroke="#ECE9E9"/>
</svg>
