<svg width="24" height="25" viewBox="0 0 24 25" fill="none" xmlns="http://www.w3.org/2000/svg">
<path d="M15 3.5H9C6.79086 3.5 5 5.29086 5 7.5V15.5" stroke="#ECE9E9"/>
<path d="M8.5 12C8.5 10.8156 8.50074 9.96912 8.57435 9.31625C8.64681 8.67346 8.78457 8.28051 9.01662 7.9781C9.14962 7.80477 9.30477 7.64962 9.4781 7.51662C9.78051 7.28457 10.1735 7.14681 10.8163 7.07435C11.4691 7.00074 12.3156 7 13.5 7C14.6844 7 15.5309 7.00074 16.1837 7.07435C16.8265 7.14681 17.2195 7.28457 17.5219 7.51662C17.6952 7.64962 17.8504 7.80477 17.9834 7.9781C18.2154 8.28051 18.3532 8.67346 18.4257 9.31625C18.4993 9.96912 18.5 10.8156 18.5 12V16C18.5 17.1844 18.4993 18.0309 18.4257 18.6837C18.3532 19.3265 18.2154 19.7195 17.9834 20.0219C17.8504 20.1952 17.6952 20.3504 17.5219 20.4834C17.2195 20.7154 16.8265 20.8532 16.1837 20.9257C15.5309 20.9993 14.6844 21 13.5 21C12.3156 21 11.4691 20.9993 10.8163 20.9257C10.1735 20.8532 9.78051 20.7154 9.4781 20.4834C9.30477 20.3504 9.14962 20.1952 9.01662 20.0219C8.78457 19.7195 8.64681 19.3265 8.57435 18.6837C8.50074 18.0309 8.5 17.1844 8.5 16V12Z" stroke="#ECE9E9"/>
</svg>
