<svg width="24" height="25" viewBox="0 0 24 25" fill="none" xmlns="http://www.w3.org/2000/svg">
<path d="M2.5 5H21.5" stroke="#ECE9E9" stroke-linecap="round"/>
<path d="M5.5 5H18.5V16.3373C18.5 16.5818 18.5 16.7041 18.4724 16.8192C18.4479 16.9213 18.4075 17.0188 18.3526 17.1083C18.2908 17.2092 18.2043 17.2957 18.0314 17.4686L15.9686 19.5314C15.7957 19.7043 15.7092 19.7908 15.6083 19.8526C15.5188 19.9075 15.4213 19.9479 15.3192 19.9724C15.2041 20 15.0818 20 14.8373 20H7.9C7.05992 20 6.63988 20 6.31901 19.8365C6.03677 19.6927 5.8073 19.4632 5.66349 19.181C5.5 18.8601 5.5 18.4401 5.5 17.6V5Z" stroke="#ECE9E9" stroke-linecap="round"/>
<path d="M12 14V8.5" stroke="#ECE9E9" stroke-linecap="round"/>
<path d="M9.5 10L11.9063 8.07496C11.9611 8.03114 12.0389 8.03114 12.0937 8.07496L14.5 10" stroke="#ECE9E9" stroke-linecap="round"/>
<path d="M18.5 16H16.1C15.5399 16 15.2599 16 15.046 16.109C14.8578 16.2049 14.7049 16.3578 14.609 16.546C14.5 16.7599 14.5 17.0399 14.5 17.6V20" stroke="#ECE9E9"/>
</svg>
