<svg width="24" height="25" viewBox="0 0 24 25" fill="none" xmlns="http://www.w3.org/2000/svg">
<path d="M16 21.5V19.5C16 17.6144 16 16.6716 15.4142 16.0858C14.8284 15.5 13.8856 15.5 12 15.5H11C9.11438 15.5 8.17157 15.5 7.58579 16.0858C7 16.6716 7 17.6144 7 19.5V21.5" stroke="#ECE9E9"/>
<path d="M7 8.5H12" stroke="#ECE9E9" stroke-linecap="round"/>
<path d="M3 9.5C3 6.67157 3 5.25736 3.87868 4.37868C4.75736 3.5 6.17157 3.5 9 3.5H16.1716C16.5803 3.5 16.7847 3.5 16.9685 3.57612C17.1522 3.65224 17.2968 3.79676 17.5858 4.08579L20.4142 6.91421C20.7032 7.20324 20.8478 7.34776 20.9239 7.53153C21 7.7153 21 7.91968 21 8.32843V15.5C21 18.3284 21 19.7426 20.1213 20.6213C19.2426 21.5 17.8284 21.5 15 21.5H9C6.17157 21.5 4.75736 21.5 3.87868 20.6213C3 19.7426 3 18.3284 3 15.5V9.5Z" stroke="#ECE9E9"/>
</svg>
