<svg width="24" height="24" viewBox="0 0 24 24" fill="none" xmlns="http://www.w3.org/2000/svg">
<path d="M3 10C3 7.17157 3 5.75736 3.87868 4.87868C4.75736 4 6.17157 4 9 4H15C17.8284 4 19.2426 4 20.1213 4.87868C21 5.75736 21 7.17157 21 10V10V14V14C21 16.8284 21 18.2426 20.1213 19.1213C19.2426 20 17.8284 20 15 20H9C6.17157 20 4.75736 20 3.87868 19.1213C3 18.2426 3 16.8284 3 14V14V13.5V9.5V10V10Z" stroke="#ECE9E9" stroke-width="2"/>
<path d="M11.5568 10.6885C11.7249 10.2536 11.809 10.0361 11.9455 10.0059C11.9814 9.99802 12.0186 9.99802 12.0545 10.0059C12.191 10.0361 12.2751 10.2536 12.4432 10.6885C12.5389 10.9359 12.5867 11.0596 12.6761 11.1437C12.7012 11.1673 12.7284 11.1883 12.7574 11.2065C12.8608 11.2711 12.9899 11.2831 13.248 11.3071C13.685 11.3477 13.9035 11.368 13.9702 11.4973C13.984 11.5241 13.9934 11.5531 13.998 11.5831C14.0201 11.7279 13.8595 11.8796 13.5383 12.1829L13.449 12.2671C13.2989 12.4089 13.2238 12.4798 13.1803 12.5683C13.1543 12.6213 13.1368 12.6785 13.1286 12.7375C13.115 12.8358 13.137 12.9386 13.1809 13.1443L13.1967 13.2178C13.2755 13.5867 13.315 13.7712 13.2657 13.8618C13.2215 13.9433 13.1401 13.9954 13.0501 13.9999C12.9499 14.0048 12.8088 13.8855 12.5265 13.6468C12.3406 13.4895 12.2476 13.4109 12.1443 13.3802C12.05 13.3521 11.95 13.3521 11.8557 13.3802C11.7524 13.4109 11.6594 13.4895 11.4735 13.6468C11.1912 13.8855 11.0501 14.0048 10.9499 13.9999C10.8599 13.9954 10.7785 13.9433 10.7343 13.8618C10.685 13.7712 10.7245 13.5867 10.8033 13.2178L10.8191 13.1443C10.863 12.9386 10.885 12.8358 10.8714 12.7375C10.8632 12.6785 10.8457 12.6213 10.8197 12.5683C10.7762 12.4798 10.7011 12.4089 10.551 12.2671L10.4617 12.1829C10.1405 11.8796 9.97989 11.7279 10.002 11.5831C10.0066 11.5531 10.016 11.5241 10.0298 11.4973C10.0965 11.368 10.315 11.3477 10.752 11.3071C11.0101 11.2831 11.1392 11.2711 11.2426 11.2065C11.2716 11.1883 11.2988 11.1673 11.3239 11.1437C11.4133 11.0596 11.4611 10.9359 11.5568 10.6885Z" fill="#ECE9E9" stroke="#ECE9E9"/>
</svg>
