<svg width="18" height="19" viewBox="0 0 18 19" fill="none" xmlns="http://www.w3.org/2000/svg">
<path d="M16.3259 2.77772C17 3.78661 17 5.19108 17 8C17 10.8089 17 12.2134 16.3259 13.2223C16.034 13.659 15.659 14.034 15.2223 14.3259C14.3409 14.9148 13.1577 14.9892 11 14.9986V15L9.89443 17.2111C9.5259 17.9482 8.4741 17.9482 8.10557 17.2111L7 15V14.9986C4.8423 14.9892 3.65907 14.9148 2.77772 14.3259C2.34096 14.034 1.96596 13.659 1.67412 13.2223C1 12.2134 1 10.8089 1 8C1 5.19108 1 3.78661 1.67412 2.77772C1.96596 2.34096 2.34096 1.96596 2.77772 1.67412C3.78661 1 5.19108 1 8 1H10C12.8089 1 14.2134 1 15.2223 1.67412C15.659 1.96596 16.034 2.34096 16.3259 2.77772Z" stroke="#ECE9E9" stroke-width="2" stroke-linecap="round" stroke-linejoin="round"/>
</svg>
